<?xml version="1.0" encoding="UTF-8" standalone="no"?>
<!DOCTYPE svg PUBLIC "-//W3C//DTD SVG 1.1//EN" "http://www.w3.org/Graphics/SVG/1.1/DTD/svg11.dtd">
<svg width="100%" height="100%" viewBox="0 0 256 64" version="1.1" xmlns="http://www.w3.org/2000/svg" xmlns:xlink="http://www.w3.org/1999/xlink" xml:space="preserve" xmlns:serif="http://www.serif.com/" style="fill-rule:evenodd;clip-rule:evenodd;stroke-linejoin:round;stroke-miterlimit:2;">
    <g transform="matrix(1.09402,0,0,1.82857,-12.0342,-18.2857)">
        <path d="M69.5,36.25L69.5,45L11,27.5L69.5,10L69.5,18.75L245,18.75L245,36.25L69.5,36.25Z" style="fill:rgb(199,78,77);"/>
        <path d="M69.5,36.25L69.5,45L11,27.5L69.5,10L69.5,18.75L245,18.75L245,36.25L69.5,36.25ZM69.5,32.969C69.5,32.969 209.808,32.969 239.516,32.969C239.516,32.969 239.516,22.031 239.516,22.031L64.016,22.031L64.016,15.309L23.263,27.5L64.016,39.691L64.016,32.969L69.5,32.969Z" style="fill:rgb(112,35,35);"/>
    </g>
</svg>
