<?xml version="1.0" encoding="UTF-8" standalone="no"?>
<!DOCTYPE svg PUBLIC "-//W3C//DTD SVG 1.1//EN" "http://www.w3.org/Graphics/SVG/1.1/DTD/svg11.dtd">
<svg width="100%" height="100%" viewBox="0 0 256 256" version="1.1" xmlns="http://www.w3.org/2000/svg" xmlns:xlink="http://www.w3.org/1999/xlink" xml:space="preserve" xmlns:serif="http://www.serif.com/" style="fill-rule:evenodd;clip-rule:evenodd;stroke-linejoin:round;stroke-miterlimit:2;">
    <g transform="matrix(1.32476,0,0,0.887326,-46.8687,-10.4802)">
        <path d="M217,101.203C217,89.48 213.881,78.237 208.328,69.947C202.776,61.657 195.245,57 187.393,57C156.302,57 107.698,57 76.607,57C68.755,57 61.224,61.657 55.672,69.947C50.119,78.237 47,89.48 47,101.203C47,121.014 47,140 47,140L217,140L217,101.203Z" style="fill:rgb(242,200,125);"/>
        <path d="M223.039,101.203L223.039,140C223.039,144.979 220.335,149.016 217,149.016L47,149.016C43.665,149.016 40.961,144.979 40.961,140L40.961,101.203C40.961,87.089 44.717,73.552 51.402,63.572C58.087,53.591 67.153,47.984 76.607,47.984L187.393,47.984C196.847,47.984 205.913,53.591 212.598,63.572C219.283,73.552 223.039,87.089 223.039,101.203ZM217,101.203C217,89.48 213.881,78.237 208.328,69.947C202.776,61.657 195.245,57 187.393,57L76.607,57C68.755,57 61.224,61.657 55.672,69.947C50.119,78.237 47,89.48 47,101.203L47,140L217,140L217,101.203Z" style="fill:rgb(195,129,10);"/>
    </g>
    <g transform="matrix(1.32476,0,0,1.43865,-42.232,-37.5976)">
        <path d="M194,85.065C194,67.912 178.899,54.006 160.27,54.006L96.73,54.006C78.101,54.006 63,67.912 63,85.065L63,99.006L194,99.006L194,85.065Z" style="fill:rgb(195,129,10);"/>
    </g>
    <g transform="matrix(1.5961,0,0,1.43865,-132.962,-37.5976)">
        <path d="M205,91.888C205,70.966 189.712,54.006 170.854,54.006L156.146,54.006C137.288,54.006 122,70.966 122,91.888L122,99.006L205,99.006L205,91.888Z" style="fill:rgb(242,200,125);"/>
    </g>
    <g transform="matrix(1.32476,0,0,1.18787,-41.5696,-29.987)">
        <rect x="43" y="121" width="170" height="86" style="fill:rgb(242,200,125);"/>
        <path d="M219.039,213.735L36.961,213.735L36.961,114.265L219.039,114.265L219.039,213.735ZM213,121L43,121L43,207L213,207L213,121Z" style="fill:rgb(195,129,10);"/>
    </g>
    <g transform="matrix(6.08387e-17,0.890904,-2.9248,1.60586e-16,620.829,84.3457)">
        <rect x="43" y="130" width="8" height="77" style="fill:rgb(225,164,54);"/>
    </g>
    <g transform="matrix(1.43017,0,0,1.18787,-57.2067,-33.5507)">
        <rect x="40" y="115" width="179" height="18" style="fill:rgb(195,129,10);"/>
    </g>
    <g transform="matrix(1.32476,0,0,0.981558,-41.5696,17.6223)">
        <rect x="62.5" y="107.006" width="15.5" height="95" style="fill:rgb(195,129,10);"/>
    </g>
    <g transform="matrix(1.32476,0,0,0.981558,111.44,17.6223)">
        <rect x="62.5" y="107.006" width="15.5" height="95" style="fill:rgb(195,129,10);"/>
    </g>
    <g transform="matrix(1.32476,0,0,0.662708,34.9354,-30.816)">
        <rect x="62.5" y="107.006" width="15.5" height="95" style="fill:rgb(195,129,10);"/>
    </g>
    <g transform="matrix(1.32476,0,0,0.981558,34.9354,17.6223)">
        <rect x="62.5" y="107.006" width="15.5" height="95" style="fill:rgb(195,129,10);"/>
    </g>
    <g transform="matrix(1.32476,0,0,1.18787,-44.2191,-31.1749)">
        <rect x="119" y="105" width="22" height="34" style="fill:rgb(195,129,10);"/>
    </g>
    <g transform="matrix(1.32476,0,0,1.18787,-41.5696,-28.2052)">
        <path d="M125.969,119.446C124.791,118.749 124,117.466 124,116C124,113.792 125.792,112 128,112C130.208,112 132,113.792 132,116C132,117.466 131.209,118.749 130.031,119.446L131.5,127L124.5,127L125.969,119.446Z" style="fill:rgb(225,164,54);"/>
    </g>
</svg>
