<?xml version="1.0" encoding="UTF-8" standalone="no"?>
<!DOCTYPE svg PUBLIC "-//W3C//DTD SVG 1.1//EN" "http://www.w3.org/Graphics/SVG/1.1/DTD/svg11.dtd">
<svg width="100%" height="100%" viewBox="0 0 256 256" version="1.1" xmlns="http://www.w3.org/2000/svg" xmlns:xlink="http://www.w3.org/1999/xlink" xml:space="preserve" xmlns:serif="http://www.serif.com/" style="fill-rule:evenodd;clip-rule:evenodd;stroke-linejoin:round;stroke-miterlimit:2;">
    <g transform="matrix(1.15423,0,0,1.15423,-6.14757,-15.8455)">
        <circle cx="116.223" cy="112" r="32" style="fill:rgb(240,224,189);"/>
    </g>
    <g transform="matrix(1.15423,0,0,1.15423,-9.27321,-21.6166)">
        <path d="M166.429,223.27C171.243,214.932 173.777,205.474 173.777,195.847C173.777,165.576 149.201,141 118.931,141C88.66,141 64.084,165.576 64.084,195.847C64.084,205.474 66.618,214.932 71.432,223.27L166.429,223.27Z" style="fill:rgb(189,114,65);"/>
    </g>
    <g transform="matrix(1.15423,0,0,2.51832,-15.7015,-63.9034)">
        <rect x="24" y="31" width="201" height="11" style="fill:rgb(30,38,39);"/>
    </g>
    <g transform="matrix(1.15423,0,0,2.51832,-15.7015,136.066)">
        <rect x="24" y="31" width="201" height="11" style="fill:rgb(30,38,39);"/>
    </g>
    <g transform="matrix(1.73134,0,0,1.03001,-48.083,-5.51436)">
        <rect x="42" y="46" width="12" height="167.25" style="fill:rgb(102,117,124);"/>
    </g>
    <g transform="matrix(1.73134,0,0,1.03001,-1.59372,-5.51436)">
        <rect x="42" y="46" width="12" height="167.25" style="fill:rgb(102,117,124);"/>
    </g>
    <g transform="matrix(1.73134,0,0,1.03001,44.8955,-5.51436)">
        <rect x="42" y="46" width="12" height="167.25" style="fill:rgb(102,117,124);"/>
    </g>
    <g transform="matrix(1.73134,0,0,1.03001,91.3848,-5.51436)">
        <rect x="42" y="46" width="12" height="167.25" style="fill:rgb(102,117,124);"/>
    </g>
    <g transform="matrix(1.73134,0,0,1.03001,137.874,-5.51436)">
        <rect x="42" y="46" width="12" height="167.25" style="fill:rgb(102,117,124);"/>
    </g>
</svg>
