<?xml version="1.0" encoding="UTF-8" standalone="no"?>
<!DOCTYPE svg PUBLIC "-//W3C//DTD SVG 1.1//EN" "http://www.w3.org/Graphics/SVG/1.1/DTD/svg11.dtd">
<svg width="100%" height="100%" viewBox="0 0 256 256" version="1.1" xmlns="http://www.w3.org/2000/svg" xmlns:xlink="http://www.w3.org/1999/xlink" xml:space="preserve" xmlns:serif="http://www.serif.com/" style="fill-rule:evenodd;clip-rule:evenodd;stroke-linejoin:round;stroke-miterlimit:2;">
    <g transform="matrix(1.22751,0,0,1.22751,-35.873,-51.8307)">
        <path d="M76,198C76,194.689 73.311,192 70,192L58,192C54.689,192 52,194.689 52,198L52,225C52,228.311 54.689,231 58,231L70,231C73.311,231 76,228.311 76,225L76,198Z" style="fill:rgb(34,33,33);"/>
    </g>
    <g transform="matrix(1.22751,0,0,1.22751,134.751,-51.8307)">
        <path d="M76,198C76,194.689 73.311,192 70,192L58,192C54.689,192 52,194.689 52,198L52,225C52,228.311 54.689,231 58,231L70,231C73.311,231 76,228.311 76,225L76,198Z" style="fill:rgb(34,33,33);"/>
    </g>
    <g transform="matrix(1.22751,0,0,1.08094,-24.8254,-26.1995)">
        <path d="M219,149.75C219,140.505 212.391,133 204.25,133L44.75,133C36.609,133 30,140.505 30,149.75L30,183.25C30,192.495 36.609,200 44.75,200L204.25,200C212.391,200 219,192.495 219,183.25L219,149.75Z" style="fill:rgb(147,72,55);"/>
    </g>
    <g transform="matrix(1.22751,0,0,1.22751,-30.963,-49.9894)">
        <path d="M77,157.5C77,152.809 73.191,149 68.5,149L51.5,149C46.809,149 43,152.809 43,157.5L43,174.5C43,179.191 46.809,183 51.5,183L68.5,183C73.191,183 77,179.191 77,174.5L77,157.5Z" style="fill:rgb(225,223,223);"/>
    </g>
    <g transform="matrix(1.22751,0,0,1.22751,139.661,-49.9894)">
        <path d="M77,157.5C77,152.809 73.191,149 68.5,149L51.5,149C46.809,149 43,152.809 43,157.5L43,174.5C43,179.191 46.809,183 51.5,183L68.5,183C73.191,183 77,179.191 77,174.5L77,157.5Z" style="fill:rgb(225,223,223);"/>
    </g>
    <g transform="matrix(1.41296,0,0,1.22751,-54.979,-45.6931)">
        <path d="M199,133L60,133C60,133 73.373,87.299 79.379,66.775C81.089,60.934 85.846,57 91.201,57C109.242,57 149.758,57 167.799,57C173.154,57 177.911,60.934 179.621,66.775C185.627,87.299 199,133 199,133Z" style="fill:rgb(210,90,66);"/>
    </g>
    <g transform="matrix(1.05972,0,0,0.807574,-9.23421,-10.709)">
        <path d="M199,133L60,133C60,133 74.856,82.234 80.284,63.684C81.462,59.658 84.409,57 87.696,57C104.384,57 154.616,57 171.304,57C174.591,57 177.538,59.658 178.716,63.684C184.144,82.234 199,133 199,133Z" style="fill:rgb(222,220,220);"/>
    </g>
</svg>
