<?xml version="1.0" encoding="UTF-8" standalone="no"?>
<!DOCTYPE svg PUBLIC "-//W3C//DTD SVG 1.1//EN" "http://www.w3.org/Graphics/SVG/1.1/DTD/svg11.dtd">
<svg width="100%" height="100%" viewBox="0 0 256 256" version="1.1" xmlns="http://www.w3.org/2000/svg" xmlns:xlink="http://www.w3.org/1999/xlink" xml:space="preserve" xmlns:serif="http://www.serif.com/" style="fill-rule:evenodd;clip-rule:evenodd;stroke-linejoin:round;stroke-miterlimit:2;">
    <g transform="matrix(1.18555,0,0,1.18555,-32.4784,-6.00588)">
        <g transform="matrix(297,0,0,297,225.419,221)">
        </g>
        <text x="44px" y="221px" style="font-family:'Helvetica-Bold', 'Helvetica';font-weight:700;font-size:297px;fill:rgb(199,78,77);">?</text>
        <path d="M156.825,142.109C155.665,145.783 155.037,151.487 154.94,159.222L115.785,159.222C116.365,142.883 117.912,131.595 120.425,125.36C122.939,119.124 129.417,111.945 139.858,103.824L150.444,95.558C153.925,92.948 156.729,90.096 158.855,87.002C162.723,81.685 164.656,75.835 164.656,69.455C164.656,62.107 162.505,55.412 158.203,49.369C153.901,43.327 146.045,40.306 134.637,40.306C123.422,40.306 115.47,44.028 110.781,51.472C106.093,58.917 103.748,66.651 103.748,74.675L61.837,74.675C62.998,47.122 72.617,27.592 90.696,16.087C102.104,8.74 116.123,5.066 132.752,5.066C154.602,5.066 172.753,10.287 187.207,20.728C201.66,31.169 208.887,46.638 208.887,67.134C208.887,79.703 205.745,90.289 199.461,98.894C195.787,104.114 188.729,110.785 178.288,118.906L167.992,126.882C162.384,131.233 158.662,136.309 156.825,142.109ZM150.392,140.072C152.62,133.038 157.056,126.826 163.855,121.551L163.859,121.548L174.149,113.577C183.875,106.012 190.52,99.873 193.942,95.01C193.965,94.978 193.988,94.946 194.012,94.914C199.502,87.396 202.139,78.115 202.139,67.134C202.139,49.095 195.977,35.388 183.255,26.198C169.86,16.521 153.001,11.814 132.752,11.814C117.579,11.814 104.759,15.056 94.35,21.76C94.34,21.767 94.329,21.774 94.319,21.78C79.546,31.182 71.316,46.652 69.089,67.927C69.089,67.927 97.48,67.927 97.48,67.927C98.468,61.053 100.985,54.365 105.072,47.876C110.92,38.592 120.65,33.558 134.637,33.558C148.827,33.558 158.349,37.94 163.7,45.456C168.84,52.675 171.404,60.676 171.404,69.455C171.404,77.248 169.07,84.4 164.366,90.898C161.869,94.51 158.609,97.861 154.549,100.915L144.011,109.143L144.001,109.151C134.818,116.293 128.895,122.398 126.684,127.882C124.718,132.758 123.506,140.964 122.848,152.474L148.438,152.474C148.782,147.163 149.457,143.033 150.39,140.077L150.392,140.072ZM157.985,221L114.77,221L114.77,179.089L157.985,179.089L157.985,221ZM151.237,214.252L151.237,185.837L121.517,185.837L121.517,214.252L151.237,214.252Z" style="fill:rgb(112,35,35);"/>
    </g>
</svg>
