<?xml version="1.0" encoding="UTF-8" standalone="no"?>
<!DOCTYPE svg PUBLIC "-//W3C//DTD SVG 1.1//EN" "http://www.w3.org/Graphics/SVG/1.1/DTD/svg11.dtd">
<svg width="100%" height="100%" viewBox="0 0 256 256" version="1.1" xmlns="http://www.w3.org/2000/svg" xmlns:xlink="http://www.w3.org/1999/xlink" xml:space="preserve" xmlns:serif="http://www.serif.com/" style="fill-rule:evenodd;clip-rule:evenodd;stroke-linejoin:round;stroke-miterlimit:2;">
    <g transform="matrix(1.4755,0,0,1.4755,-56.438,-89.0561)">
        <path d="M113.054,70.463C114.092,68.67 116.031,67.463 118.25,67.463C121.561,67.463 124.25,70.151 124.25,73.463C124.25,76.774 121.561,79.463 118.25,79.463C116.031,79.463 114.092,78.256 113.054,76.463L106.75,76.463L106.75,97.463L96.75,97.463L96.75,76.463L90.446,76.463C89.408,78.256 87.469,79.463 85.25,79.463C81.939,79.463 79.25,76.774 79.25,73.463C79.25,70.151 81.939,67.463 85.25,67.463C87.469,67.463 89.408,68.67 90.446,70.463L96.75,70.463L96.75,68.463L106.75,68.463L106.75,70.463L113.054,70.463Z" style="fill:rgb(27,35,38);"/>
    </g>
    <g transform="matrix(1.10345,0,0,1.10345,-13.2414,-13.2414)">
        <path d="M26.709,53.979L194.31,53.979C216.953,53.979 235.308,72.334 235.308,94.977L235.308,159.616L244,159.616L244,174.325L171.793,174.325L171.793,159.616L180.484,159.616L180.484,108.803L26.709,108.803L26.709,117.495L12,117.495L12,45.287L26.709,45.287L26.709,53.979Z" style="fill:rgb(95,105,113);"/>
    </g>
    <g transform="matrix(1.4755,0,0,1.4755,-63.8156,-80.5719)">
        <path d="M189.75,183C189.75,183 179.5,202.425 179.5,210.75C179.5,216.407 184.093,221 189.75,221C195.407,221 200,216.407 200,210.75C200,202.425 189.75,183 189.75,183Z" style="fill:rgb(67,123,161);"/>
    </g>
</svg>
